<?xml version="1.0" standalone="no"?>
<!DOCTYPE svg PUBLIC "-//W3C//DTD SVG 20010904//EN"
 "http://www.w3.org/TR/2001/REC-SVG-20010904/DTD/svg10.dtd">
<svg version="1.0" xmlns="http://www.w3.org/2000/svg"
 width="1280.000000pt" height="1280.000000pt" viewBox="0 0 1280.000000 1280.000000"
 preserveAspectRatio="xMidYMid meet">

<g transform="translate(0.000000,1280.000000) scale(0.100000,-0.100000)"
fill="#000000" stroke="none">
<path d="M0 6400 l0 -6400 6400 0 6400 0 0 6400 0 6400 -6400 0 -6400 0 0
-6400z m10269 2061 c16 -26 35 -66 41 -91 6 -25 32 -74 56 -111 39 -57 51 -67
90 -77 94 -25 114 -145 36 -215 -16 -15 -20 -29 -18 -68 2 -27 -1 -49 -5 -49
-5 0 3 -30 18 -67 43 -116 32 -225 -29 -267 -38 -27 -127 -21 -191 13 l-55 29
-60 -17 c-49 -13 -68 -25 -98 -59 -44 -51 -81 -72 -130 -72 -54 0 -105 34
-150 100 -21 32 -42 56 -45 55 -3 -2 -17 6 -30 18 -39 35 -66 47 -103 47 -88
0 -155 68 -171 172 -9 58 16 120 67 164 24 21 41 49 53 88 16 51 17 64 5 109
-30 118 -4 194 82 238 54 27 95 28 146 1 22 -11 49 -19 59 -17 85 20 109 31
141 67 52 57 91 82 142 88 60 8 111 -19 149 -79z m-2301 -687 c29 -20 28 -55
-4 -163 -15 -47 -26 -87 -26 -88 1 -2 -6 -19 -14 -38 -9 -23 -12 -50 -9 -73 8
-44 25 -92 34 -92 3 0 15 -7 25 -15 19 -14 18 -17 -25 -72 -25 -32 -66 -88
-93 -126 -69 -98 -83 -110 -130 -104 -32 5 -53 20 -137 103 -54 54 -96 101
-93 106 3 4 22 12 42 18 38 10 92 51 92 69 0 5 5 11 10 13 6 2 14 46 19 98 12
119 38 248 57 277 21 34 58 54 143 79 93 28 82 27 109 8z m-5108 -607 c34 -17
59 -71 67 -147 7 -74 28 -98 101 -117 l46 -12 91 87 c151 145 273 196 465 197
139 0 197 -13 315 -71 97 -47 195 -133 255 -224 17 -25 30 -41 30 -37 0 5 7 1
16 -7 15 -15 37 -19 96 -19 46 1 82 24 123 81 144 197 359 294 620 278 201
-12 355 -76 480 -201 92 -91 137 -172 180 -319 45 -159 56 -304 60 -856 3
-278 7 -525 10 -550 6 -42 66 -150 85 -150 4 0 12 -11 18 -25 7 -16 30 -34 59
-46 96 -41 118 -92 66 -148 -59 -61 -183 -86 -433 -86 -158 0 -209 4 -270 19
-92 23 -122 38 -149 72 -43 55 -19 104 69 142 29 12 56 35 75 62 17 23 38 49
47 59 43 42 49 113 55 579 6 470 -1 609 -38 771 -24 103 -74 202 -93 183 -4
-3 -4 2 0 12 5 13 4 17 -3 13 -6 -4 -14 0 -17 9 -4 10 -2 13 6 8 7 -4 8 -3 4
4 -4 7 -14 12 -22 12 -8 0 -14 5 -14 10 0 6 -5 10 -11 10 -12 0 -39 25 -39 37
0 5 -12 10 -26 11 -33 2 -46 11 -38 23 3 6 -4 7 -20 3 -15 -4 -26 -2 -26 4 0
18 -104 25 -182 12 -75 -13 -258 -91 -258 -111 0 -6 -4 -8 -8 -5 -12 7 -145
-121 -138 -133 4 -6 2 -9 -6 -6 -7 2 -22 -7 -32 -22 -11 -14 -14 -23 -7 -18
10 6 11 3 2 -13 -6 -12 -18 -25 -27 -30 -9 -5 -16 -12 -15 -15 0 -4 -8 -27
-19 -53 -40 -92 -45 -166 -45 -684 0 -390 3 -503 13 -533 16 -45 62 -117 74
-117 5 0 6 -5 2 -12 -5 -8 -2 -9 10 -5 9 4 15 3 12 -1 -10 -17 26 -52 65 -63
80 -24 107 -75 74 -139 -16 -31 -75 -58 -180 -81 -90 -20 -430 -17 -518 4 -81
20 -143 50 -157 76 -29 55 6 116 81 140 34 11 99 77 99 100 0 6 5 11 10 11 6
0 10 5 10 11 0 6 10 24 21 41 20 27 22 48 30 256 22 630 -1 1013 -70 1161 -28
60 -55 101 -67 101 -16 0 -65 55 -57 65 5 4 2 5 -5 1 -7 -4 -25 3 -43 18 -17
14 -35 26 -40 26 -6 0 -8 4 -5 9 3 5 0 8 -7 7 -6 0 -42 5 -80 13 -69 14 -171
8 -183 -10 -3 -5 -15 -7 -26 -3 -13 4 -18 2 -14 -4 3 -5 0 -10 -7 -9 -34 1
-48 -4 -41 -15 4 -7 3 -8 -5 -4 -6 4 -28 -3 -49 -16 -20 -12 -41 -23 -47 -23
-5 -1 -9 -6 -8 -13 2 -7 -4 -9 -14 -5 -12 5 -14 3 -8 -7 5 -8 4 -11 -2 -7 -17
11 -122 -76 -115 -96 1 -5 -2 -6 -7 -3 -5 4 -18 -5 -28 -19 -10 -14 -30 -39
-45 -57 -16 -17 -28 -40 -28 -50 0 -10 -7 -21 -15 -24 -8 -4 -15 -13 -15 -20
0 -8 -7 -25 -15 -38 -31 -46 -37 -173 -32 -657 3 -261 7 -487 9 -504 3 -16 6
-38 6 -47 1 -9 8 -23 15 -30 28 -29 56 -76 49 -83 -4 -5 1 -5 11 -2 10 4 16 3
12 -2 -3 -6 1 -13 9 -18 8 -4 14 -12 13 -18 -1 -5 24 -22 55 -37 68 -33 93
-64 83 -107 -10 -48 -54 -77 -157 -102 -81 -20 -118 -23 -288 -23 -210 0 -294
11 -377 49 -65 29 -86 64 -69 114 12 36 14 39 91 73 27 13 48 26 47 31 -1 4 6
15 16 25 36 39 55 66 80 116 l26 51 0 620 c0 649 -4 732 -43 810 -11 22 -21
33 -21 25 0 -10 -4 -8 -13 6 -32 56 -79 96 -129 109 -130 35 -133 133 -6 212
173 107 424 172 508 130z m7389 -16 c11 -11 27 -44 36 -73 14 -47 15 -96 5
-463 -7 -225 -10 -633 -8 -906 l3 -495 26 -40 c15 -21 38 -52 52 -68 14 -17
24 -33 21 -38 -3 -4 2 -8 10 -8 9 0 16 -4 16 -9 0 -4 21 -16 46 -26 58 -22 84
-50 84 -91 0 -51 -53 -88 -164 -116 -122 -30 -440 -33 -551 -5 -88 22 -146 54
-163 90 -12 24 -11 33 5 64 14 29 29 42 71 58 29 12 49 24 46 28 -4 4 0 7 10
7 9 0 15 4 11 9 -3 5 3 16 13 23 11 7 22 23 26 36 4 12 11 20 16 17 5 -3 11 8
15 25 4 17 10 28 15 25 4 -3 13 24 19 58 13 76 14 1030 2 1240 -10 153 -11
156 -106 269 -41 48 -54 57 -91 63 -113 17 -135 118 -42 188 47 36 144 82 213
102 195 58 329 71 364 36z m-2125 -467 c55 -14 105 -28 110 -33 81 -61 365
-299 471 -394 58 -52 62 -43 -58 -135 -195 -149 -438 -287 -593 -337 -85 -28
-97 -29 -284 -30 -127 0 -214 5 -250 13 -161 38 -248 72 -375 147 -129 76
-345 261 -345 296 0 9 33 46 73 82 263 236 556 382 835 417 112 14 304 2 416
-26z m-352 -1758 c15 -10 6 -13 -52 -14 -73 -2 -82 2 -52 24 19 16 75 10 104
-10z"/>
<path d="M3850 6741 c0 -6 4 -13 10 -16 6 -3 7 1 4 9 -7 18 -14 21 -14 7z"/>
<path d="M7665 6461 c-45 -21 -75 -52 -103 -108 -34 -67 -35 -88 -6 -145 42
-85 73 -119 132 -145 45 -21 65 -25 116 -21 34 3 83 16 111 29 44 21 53 31 72
79 16 39 22 76 23 127 0 110 -20 145 -105 184 -55 26 -185 26 -240 0z"/>
</g>
</svg>
